<svg width="22" height="16" viewBox="0 0 22 16" fill="none" xmlns="http://www.w3.org/2000/svg">
<path d="M13 4.8C13 4.7 13.0333 4.60417 13.1 4.5125C13.1667 4.42083 13.2417 4.35833 13.325 4.325C13.825 4.14167 14.3375 4 14.8625 3.9C15.3875 3.8 15.9333 3.75 16.5 3.75C16.8667 3.75 17.225 3.77083 17.575 3.8125C17.925 3.85417 18.2667 3.91667 18.6 4C18.7 4.03333 18.7917 4.09583 18.875 4.1875C18.9583 4.27917 19 4.38333 19 4.5C19 4.68333 18.9375 4.825 18.8125 4.925C18.6875 5.025 18.5333 5.05 18.35 5C18.0667 4.91667 17.7708 4.85417 17.4625 4.8125C17.1542 4.77083 16.8333 4.75 16.5 4.75C16.0167 4.75 15.55 4.79583 15.1 4.8875C14.65 4.97917 14.2083 5.11667 13.775 5.3C13.5417 5.38333 13.3542 5.37917 13.2125 5.2875C13.0708 5.19583 13 5.03333 13 4.8ZM13 10.3C13 10.2 13.0333 10.1 13.1 10C13.1667 9.9 13.2417 9.83333 13.325 9.8C13.825 9.61667 14.3375 9.47917 14.8625 9.3875C15.3875 9.29583 15.9333 9.25 16.5 9.25C16.8667 9.25 17.225 9.27083 17.575 9.3125C17.925 9.35417 18.2667 9.41667 18.6 9.5C18.7 9.53333 18.7917 9.59583 18.875 9.6875C18.9583 9.77917 19 9.88333 19 10C19 10.1833 18.9375 10.325 18.8125 10.425C18.6875 10.525 18.5333 10.55 18.35 10.5C18.0667 10.4167 17.7708 10.3542 17.4625 10.3125C17.1542 10.2708 16.8333 10.25 16.5 10.25C16.0167 10.25 15.55 10.2917 15.1 10.375C14.65 10.4583 14.2083 10.5917 13.775 10.775C13.5417 10.8583 13.3542 10.8583 13.2125 10.775C13.0708 10.6917 13 10.5333 13 10.3ZM13 7.55C13 7.45 13.0333 7.35417 13.1 7.2625C13.1667 7.17083 13.2417 7.10833 13.325 7.075C13.825 6.89167 14.3375 6.75 14.8625 6.65C15.3875 6.55 15.9333 6.5 16.5 6.5C16.8667 6.5 17.225 6.52083 17.575 6.5625C17.925 6.60417 18.2667 6.66667 18.6 6.75C18.7 6.78333 18.7917 6.84583 18.875 6.9375C18.9583 7.02917 19 7.13333 19 7.25C19 7.43333 18.9375 7.575 18.8125 7.675C18.6875 7.775 18.5333 7.8 18.35 7.75C18.0667 7.66667 17.7708 7.60417 17.4625 7.5625C17.1542 7.52083 16.8333 7.5 16.5 7.5C16.0167 7.5 15.55 7.54583 15.1 7.6375C14.65 7.72917 14.2083 7.86667 13.775 8.05C13.5417 8.13333 13.3542 8.12917 13.2125 8.0375C13.0708 7.94583 13 7.78333 13 7.55ZM5.2 12.5C6.1 12.5 6.97083 12.6042 7.8125 12.8125C8.65417 13.0208 9.48333 13.3333 10.3 13.75V3.075C9.55 2.575 8.7375 2.1875 7.8625 1.9125C6.9875 1.6375 6.1 1.5 5.2 1.5C4.56667 1.5 3.94583 1.57917 3.3375 1.7375C2.72917 1.89583 2.11667 2.09167 1.5 2.325V13.175C2.01667 12.9417 2.60417 12.7708 3.2625 12.6625C3.92083 12.5542 4.56667 12.5 5.2 12.5ZM11.8 13.75C12.6333 13.3333 13.45 13.0208 14.25 12.8125C15.05 12.6042 15.9 12.5 16.8 12.5C17.4333 12.5 18.0875 12.55 18.7625 12.65C19.4375 12.75 20.0167 12.8833 20.5 13.05V2.325C19.9333 2.04167 19.3333 1.83333 18.7 1.7C18.0667 1.56667 17.4333 1.5 16.8 1.5C15.9 1.5 15.0292 1.6375 14.1875 1.9125C13.3458 2.1875 12.55 2.575 11.8 3.075V13.75ZM11.05 15.725C10.9167 15.725 10.7958 15.7125 10.6875 15.6875C10.5792 15.6625 10.4833 15.6167 10.4 15.55C9.61667 15.0667 8.78333 14.6917 7.9 14.425C7.01667 14.1583 6.11667 14.025 5.2 14.025C4.58333 14.025 3.98333 14.1 3.4 14.25C2.81667 14.4 2.23333 14.5833 1.65 14.8C1.26667 14.9833 0.895833 14.9583 0.5375 14.725C0.179167 14.4917 0 14.1583 0 13.725V2.15C0 1.9 0.0583333 1.67083 0.175 1.4625C0.291667 1.25417 0.466667 1.09167 0.7 0.975C1.4 0.641667 2.12917 0.395834 2.8875 0.2375C3.64583 0.0791669 4.41667 0 5.2 0C6.25 0 7.27083 0.141667 8.2625 0.425C9.25417 0.708333 10.1833 1.14167 11.05 1.725C11.9 1.14167 12.8125 0.708333 13.7875 0.425C14.7625 0.141667 15.7667 0 16.8 0C17.5833 0 18.35 0.0791669 19.1 0.2375C19.85 0.395834 20.575 0.641667 21.275 0.975C21.5083 1.09167 21.6875 1.25417 21.8125 1.4625C21.9375 1.67083 22 1.9 22 2.15V13.725C22 14.1917 21.8125 14.5458 21.4375 14.7875C21.0625 15.0292 20.6917 15.0333 20.325 14.8C19.7583 14.5667 19.1833 14.3792 18.6 14.2375C18.0167 14.0958 17.4167 14.025 16.8 14.025C15.9 14.025 15.0167 14.1583 14.15 14.425C13.2833 14.6917 12.4667 15.0667 11.7 15.55C11.6167 15.6167 11.5208 15.6625 11.4125 15.6875C11.3042 15.7125 11.1833 15.725 11.05 15.725Z" fill="url(#paint0_linear_33_94)"/>
<defs>
<linearGradient id="paint0_linear_33_94" x1="18.2769" y1="2.20755" x2="5.62151" y2="15.4647" gradientUnits="userSpaceOnUse">
<stop stop-color="#00198D"/>
<stop offset="1" stop-color="#4F6DFF"/>
</linearGradient>
</defs>
</svg>
