<svg width="  " height="35" viewBox="0 0 175 35" fill="none" xmlns="http://www.w3.org/2000/svg">
<path d="M0.552002 34V1.36H11.736L19.608 28.24H20.088V1.36H26.712V34H15.816L7.656 7.12H7.176V34H0.552002Z" fill="black"/>
<path d="M33.2573 34V10H39.6893V34H33.2573ZM33.2573 6.928V0.399998H39.6893V6.928H33.2573Z" fill="black"/>
<path d="M54.6083 9.424C56.2723 9.424 58.4003 9.68 60.9923 10.192L62.2883 10.48L62.0963 15.568C59.5683 15.312 57.6963 15.184 56.4803 15.184C54.2723 15.184 52.8003 15.664 52.0643 16.624C51.3603 17.552 51.0083 19.328 51.0083 21.952C51.0083 24.576 51.3603 26.384 52.0643 27.376C52.8003 28.336 54.2883 28.816 56.5283 28.816L62.0963 28.432L62.2883 33.568C58.8643 34.24 56.2563 34.576 54.4643 34.576C50.9123 34.576 48.3523 33.584 46.7843 31.6C45.2483 29.584 44.4803 26.368 44.4803 21.952C44.4803 17.536 45.2803 14.352 46.8803 12.4C48.4803 10.416 51.0563 9.424 54.6083 9.424Z" fill="black"/>
<path d="M73.4861 34H67.0541V0.399998H73.4861V11.152C75.6941 10 77.6781 9.424 79.4381 9.424C82.6381 9.424 84.8461 10.368 86.0621 12.256C87.2781 14.144 87.8861 17.056 87.8861 20.992V34H81.4541V21.136C81.4541 19.12 81.2141 17.632 80.7341 16.672C80.2541 15.68 79.2941 15.184 77.8541 15.184C76.6061 15.184 75.3581 15.376 74.1101 15.76L73.4861 15.952V34Z" fill="black"/>
<path d="M94.8814 12.736C96.5774 10.528 99.4094 9.424 103.377 9.424C107.345 9.424 110.177 10.528 111.873 12.736C113.569 14.912 114.417 17.984 114.417 21.952C114.417 30.368 110.737 34.576 103.377 34.576C96.0174 34.576 92.3374 30.368 92.3374 21.952C92.3374 17.984 93.1854 14.912 94.8814 12.736ZM99.8254 27.376C100.497 28.528 101.681 29.104 103.377 29.104C105.073 29.104 106.241 28.528 106.881 27.376C107.553 26.224 107.889 24.416 107.889 21.952C107.889 19.488 107.553 17.696 106.881 16.576C106.241 15.456 105.073 14.896 103.377 14.896C101.681 14.896 100.497 15.456 99.8254 16.576C99.1854 17.696 98.8654 19.488 98.8654 21.952C98.8654 24.416 99.1854 26.224 99.8254 27.376Z" fill="black"/>
<path d="M119.42 34V0.399998H125.852V34H119.42Z" fill="black"/>
<path d="M150.454 17.488V27.472C150.518 28.24 150.646 28.784 150.838 29.104C151.03 29.392 151.43 29.6 152.038 29.728L151.846 34.576C150.214 34.576 148.902 34.464 147.91 34.24C146.95 34.016 145.974 33.568 144.982 32.896C142.678 34.016 140.326 34.576 137.926 34.576C132.966 34.576 130.486 31.952 130.486 26.704C130.486 24.144 131.174 22.336 132.55 21.28C133.926 20.192 136.038 19.552 138.886 19.36L144.022 18.976V17.488C144.022 16.496 143.798 15.824 143.35 15.472C142.902 15.088 142.182 14.896 141.19 14.896L132.166 15.28L131.974 10.816C135.398 9.888 138.646 9.424 141.718 9.424C144.822 9.424 147.046 10.064 148.39 11.344C149.766 12.624 150.454 14.672 150.454 17.488ZM139.654 23.824C137.862 23.984 136.966 24.944 136.966 26.704C136.966 28.464 137.75 29.344 139.318 29.344C140.534 29.344 141.862 29.152 143.302 28.768L144.022 28.576V23.44L139.654 23.824Z" fill="black"/>
<path d="M173.817 16C169.849 15.488 167.065 15.232 165.465 15.232C163.897 15.232 162.873 15.376 162.393 15.664C161.945 15.952 161.721 16.416 161.721 17.056C161.721 17.664 162.025 18.096 162.633 18.352C163.273 18.576 164.873 18.928 167.433 19.408C170.025 19.856 171.865 20.608 172.953 21.664C174.041 22.72 174.585 24.432 174.585 26.8C174.585 31.984 171.369 34.576 164.937 34.576C162.825 34.576 160.265 34.288 157.257 33.712L155.721 33.424L155.913 28.048C159.881 28.56 162.633 28.816 164.169 28.816C165.737 28.816 166.793 28.672 167.337 28.384C167.913 28.064 168.201 27.6 168.201 26.992C168.201 26.384 167.897 25.936 167.289 25.648C166.713 25.36 165.177 25.008 162.681 24.592C160.217 24.176 158.377 23.472 157.161 22.48C155.945 21.488 155.337 19.728 155.337 17.2C155.337 14.64 156.201 12.72 157.929 11.44C159.657 10.128 161.881 9.472 164.601 9.472C166.489 9.472 169.065 9.776 172.329 10.384L173.913 10.672L173.817 16Z" fill="black"/>
</svg>
